<svg width="90" height="90" viewBox="0 0 90 90" fill="none" xmlns="http://www.w3.org/2000/svg">
<g clip-path="url(#clip0_1_136)">
<path d="M44.5 45C44.5 41.6406 45.8433 38.4188 48.2344 36.0433C50.6255 33.6679 53.8685 32.3333 57.25 32.3333C60.6315 32.3333 63.8745 33.6679 66.2656 36.0433C68.6567 38.4188 70 41.6406 70 45C70 48.3594 68.6567 51.5812 66.2656 53.9567C63.8745 56.3322 60.6315 57.6667 57.25 57.6667C53.8685 57.6667 50.6255 56.3322 48.2344 53.9567C45.8433 51.5812 44.5 48.3594 44.5 45V45Z" fill="#1ABCFE"/>
<path d="M19 70.3333C19 66.9739 20.3433 63.7521 22.7344 61.3766C25.1255 59.0012 28.3685 57.6667 31.75 57.6667H44.5V70.3333C44.5 73.6927 43.1567 76.9145 40.7656 79.29C38.3745 81.6655 35.1315 83 31.75 83C28.3685 83 25.1255 81.6655 22.7344 79.29C20.3433 76.9145 19 73.6927 19 70.3333V70.3333Z" fill="#0ACF83"/>
<path d="M44.5 7V32.3333H57.25C60.6315 32.3333 63.8745 30.9988 66.2656 28.6234C68.6567 26.2479 70 23.0261 70 19.6667C70 16.3073 68.6567 13.0854 66.2656 10.71C63.8745 8.33452 60.6315 7 57.25 7L44.5 7Z" fill="#FF7262"/>
<path d="M19 19.6667C19 23.0261 20.3433 26.2479 22.7344 28.6234C25.1255 30.9988 28.3685 32.3333 31.75 32.3333H44.5V7H31.75C28.3685 7 25.1255 8.33452 22.7344 10.71C20.3433 13.0854 19 16.3073 19 19.6667V19.6667Z" fill="#F24E1E"/>
<path d="M19 45C19 48.3594 20.3433 51.5812 22.7344 53.9567C25.1255 56.3322 28.3685 57.6667 31.75 57.6667H44.5V32.3333H31.75C28.3685 32.3333 25.1255 33.6679 22.7344 36.0433C20.3433 38.4188 19 41.6406 19 45V45Z" fill="#A259FF"/>
</g>
<defs>
<clipPath id="clip0_1_136">
<rect width="51" height="76" fill="white" transform="translate(19 7)"/>
</clipPath>
</defs>
</svg>
